<svg xmlns="http://www.w3.org/2000/svg" xmlns:xlink="http://www.w3.org/1999/xlink" width="274" height="274" viewBox="0 0 274 274">
  <defs>
    <clipPath >
      <rect width="186.752" height="172.795" fill="#fff"/>
    </clipPath>
  </defs>
  <g transform="translate(5304 140)">
    <path d="M25,0H249a25,25,0,0,1,25,25V249a25,25,0,0,1-25,25H25A25,25,0,0,1,0,249V25A25,25,0,0,1,25,0Z" transform="translate(-5304 -140)" fill="#066ff9"/>
    <g transform="translate(-5260.376 -89.398)">
      <g clip-path="url(#clip-path)">
        <path d="M72.9,43.715c0-13.585-.046-27.171.043-40.756C72.962.517,72.659-.522,69.811.251,41.79,7.855,20.435,23.556,8.269,50.523.343,68.091-2.413,86.456,2.326,105.165a97.241,97.241,0,0,0,23.385,42.712c11.774,12.716,26.614,20.607,42.783,24.843,0,0,62.883.217,86.312.017,9.256-.079,18.512,0,27.769-.017,1.529,0,3.232.32,3.979-1.62.729-1.894-.725-2.95-1.785-3.924-8.5-7.8-15.98-16.6-24.17-24.7-2.141-2.116-2.513-3.638-.593-6.372C173.5,116.9,177.872,95.453,174.379,72.441c-2.619-17.25-9.212-32.925-21.642-45.453A98.926,98.926,0,0,0,121.213,5.252,101.773,101.773,0,0,0,107.463.4c-2.892-.77-3.592-.033-3.58,2.924.107,25.487.059,50.974.057,76.462,0,1.8-.005,3.606-.022,5.41-.012,1.21-.184,2.629,1.206,3.1a3.531,3.531,0,0,0,3.938-.925c3.595-3.716,7.293-7.33,10.951-10.984q5.232-5.227,10.465-10.453c3.414-3.4,3.653-3.4,6.421.407,7,9.629,6.977,23.651,1.409,33.553a37.669,37.669,0,0,1-6.276,7.722c-10.056,10.323-20.313,20.455-30.508,30.631-4.079,4.072-8.6,7.75-12.342,12.217-.953,1.139-1.442.763-2.428-.325-10.74-11.855-22.22-23-33.728-34.093-4.127-3.978-8.691-7.633-12.316-12.021-8.867-10.736-9.567-27.732-.625-38.709,1.708-2.1,2.843-2.161,4.764-.258C52.172,72.319,59.667,79.4,67.022,86.625c1.391,1.366,2.812,2.479,4.705,1.671,1.854-.793,1.168-2.7,1.172-4.185q.047-20.2.018-40.4H72.9" transform="translate(0 0)" fill="#fff"/>
      </g>
    </g>
  </g>
</svg>
